/* XPM */
static char * dillo_48x48_xpm[] = {
"48 48 64 1",
"       c None",
".      c #8617C71BAEBA",
"X      c #30C271C68617",
"o      c #104038E34924",
"O      c #28A29658AEBA",
"+      c #4924B2CACF3C",
"@      c #5965BEFBCF3C",
"#      c #71C6C71BCF3C",
"$      c #A699DF7DD75C",
"%      c #E79DF3CEDF7D",
"&      c #D75CEFBED75C",
"*      c #492482078E38",
"=      c #38E369A669A6",
"-      c #0000186128A2",
";      c #30C2B6DACF3C",
":      c #8E38D34CC71B",
">      c #BEFBE79DBEFB",
",      c #BEFBEBADD75C",
"<      c #186171C68617",
"1      c #082049246185",
"2      c #208120812081",
"3      c #A699CB2BA699",
"4      c #AEBAE38DB6DA",
"5      c #A699E38DBEFB",
"6      c #BEFBEBADCF3C",
"7      c #186149245965",
"8      c #D75CE38DBEFB",
"9      c #08202CB24103",
"0      c #5144A2899658",
"q      c #1040659571C6",
"w      c #51449E79AEBA",
"e      c #28A259656185",
"r      c #1040514469A6",
"t      c #69A6BAEAA699",
"y      c #10409E79B6DA",
"u      c #000004100820",
"i      c #28A2208128A2",
"p      c #D75CD75CAEBA",
"a      c #492418611861",
"s      c #30C208200820",
"d      c #410359655965",
"f      c #71C620811861",
"g      c #8E384D344924",
"h      c #79E710400820",
"j      c #0820208130C2",
"k      c #AEBA04100000",
"l      c #20819E79C71B",
"z      c #41033CF338E3",
"x      c #2081AAAAC71B",
"c      c #104014511861",
"v      c #082010401861",
"b      c #D75CAAAA9658",
"n      c #10409248AEBA",
"m      c #28A241034924",
"M      c #186182079658",
"N      c #A69908200000",
"B      c #1040AAAAC71B",
"V      c #BEFB08200820",
"C      c #104071C679E7",
"Z      c #000038E35965",
"A      c #C71B28A22081",
"S      c #000045145965",
"D      c #DF7D0C300820",
"F      c #CF3C55554924",
"                                                ",
"                                                ",
"                   .XXXoXX                      ",
"                ..XOO+@#$%&#*=-                 ",
"             ..*O;@:::>$$,%%%$+<12              ",
"            .*34..45:$6,,::6%%:@.<7             ",
"           =.>8>4>$$$66#$,$:&%$+@+OXX           ",
"         9X0:8&>>6,,6$$#66$@#$6#@@+;OX          ",
"        2qOw.88656&,$###,,:$##@@@++@wOe         ",
"       2r*wt4&%&&&,,$##@,&&%$#@@@+++@wyeu       ",
"      irXwwtp8%&&&$,,6$#6%%%%,#@@+++OXXea2iis   ",
"      dX0wwtp8&%&&56,,6$$&%%,$:++++Ofggghhhha   ",
"     jr*0wwtp8&%%&56,$,,,&,6:;::@++Xaahskkkkh   ",
"    i7X*00w5pp8%%&5>6:5$6666$#@;+;+lOXXakkhhs   ",
"    zr*00*3p888%%>5554::>5>5:@;x;;;;lO*zkkhhs   ",
"   cod*000.p8pp8%&555:55>>4@xxxxxllll<dahhkhv   ",
"   aoX****.bbpb8%>54:45465#xxxxllllllnXhhhka2   ",
"   im***M*33bpb8&>433345>.;xxxllllllll<sNNhzX   ",
"  sidX=*XMt3bpb88443t45>4.;xxxxllBlBllqNNNh7dX  ",
"  sjdXXX<<00bp8843tt.:34#@;;;;xxBlBBlymVNNaqdX  ",
"  cj7eXXX<Xtbp884t00tt3.;;;;;;;xlllBBnzNNNaqrz  ",
"  sj7dd==<*0tb8>.0w0t+w:;;++;OXddzz=<XfNVN9CrZ  ",
"  cjmdd==<<**3p4twyyBlx@#++wXgfAgfgAgfNkkNoqr9  ",
"  sj7ddee<<MM.b>tOyxxl;@@+XgAVsam7maNNNkVh1r1j  ",
"  ucime7eCC<<03ptOyyxy;@+*gVNaqM<qC1aNkkViS112  ",
"  uvjmmr1CC<Mw4>#OxxO+;@*gVVhz<erqqCohkkVi1rSi  ",
"  svjmm1rC<<Mnt43tyOt@;OfDksz=eeeMMM7skkkc1rS   ",
"  ov-oo1rqC<MMMw..3.5;xfVkVae1r=<nnydVVAf21ro   ",
"  ov-9Z11q<<MnnnO;@4$#*Vkkho11qMyyyyzDAbaj1ro   ",
"   v-2oS1q<MMnnnyBB;@.gDkVfZoeMy+xyxhDbba9r1X   ",
"   uv-oo1qC<MnnyBBBBBMfAFAiid00.:.;MAbbg2orSu   ",
"   2v-2oSrC<MnnyBBBBB=Fbpgimd0t5>6.=Fbbf-Zr7    ",
"    c--j91qMMnnxBBBBBzbbbg2e=t.6&53zFbbfjSSj    ",
"    c--j9Sr<MMnyyBBBBfbbbgid*0.>6:tgbFFi7=oc    ",
"     v--9ZSrMMMnyBBBBfFbFfi=00.34t*gFFA2erj     ",
"     uv-j9ZSqMMnnyyyyfFFFfi=*0ttt*dFFFf2eSu     ",
"      2-j99ZS1<MMnnyBzFFFg9qXwwnMCzAFFf=eu      ",
"       c-99ZZSS<<<MnnmAFFFa=MMMMCegAFDhe9u      ",
"        -999ZZS1qq<MMeAFDAfrCCMC7gDDDDh9u       ",
"         vj9oZZZZSS1qqaVDDAfde=gAhsDDDAfgga     ",
"          --ooZZZSSSSS9hDDDAAAAAh9fDDDDAAAa     ",
"           cjoZZZSSSSSZ2hVDDDDsa97maNDNNasu     ",
"            c-9oZZSSSSSZj-ci2cjo1m9iiscic       ",
"              ccj9oZSSSSS999imeioi2u            ",
"                v2--9oZSSS97mi 2ss              ",
"                   vuuuuuuucjz                  ",
"                                                ",
"                                                "};
