/* XPM */
static char *Icon_64[] = {
/* columns rows colors chars-per-pixel */
"64 64 57 1",
"  c None",
". c #082010401040",
"X c #08201C7128A2",
"o c #208120812081",
"O c #00002CB24103",
"+ c #000038E35965",
"@ c #104038E34924",
"# c #28A238E34103",
"$ c #000041035965",
"% c #104049245965",
"& c #08205D7571C6",
"* c #1040514469A6",
"= c #104075D679E7",
"- c #30C249244924",
"; c #38E359656185",
": c #38E36DB669A6",
"> c #492414511040",
", c #61853CF338E3",
"< c #49244D344924",
"1 c #596559655965",
"2 c #69A66DB669A6",
"3 c #61857DF771C6",
"4 c #186171C68E38",
"5 c #10408617AEBA",
"6 c #10409E79B6DA",
"7 c #20818A289658",
"8 c #0820B6DACF3C",
"9 c #2081A289C71B",
"0 c #28A2A289CF3C",
"q c #28A2B2CACF3C",
"w c #30C2BEFBD75C",
"e c #596582078E38",
"r c #49249248A699",
"t c #79E786178617",
"y c #69A69E79AEBA",
"u c #69A6BEFB9E79",
"i c #4924BAEADF7D",
"p c #71C6C30BBEFB",
"a c #69A6C71BDF7D",
"s c #965808200820",
"d c #AEBA0C300820",
"f c #B6DA49244103",
"g c #C71B04100000",
"h c #E79D10401040",
"j c #E79D4D344924",
"k c #9E79DF7DB6DA",
"l c #8E38E38DAEBA",
"z c #B6DAEBADBEFB",
"x c #9E79DF7DD75C",
"c c #BEFBEFBECF3C",
"v c #B6DAF3CEDF7D",
"b c #CF3CBAEA9658",
"n c #DF7DCB2BAEBA",
"m c #D75CE79DBEFB",
"M c #D75CF3CECF3C",
"N c #EFBEF3CEE79D",
"B c None",
/* pixels */
"BBBBBBBBBBBBBBBBBBBBBBBBBBBBBBBBBBBBBBBBBBBBBBBBBBBBBBBBBBBBBBBB",
"BBBBBBBBBBBBBBBBBBBBBBBBBBBBBBBBBBBBBBBBBBBBBBBBBBBBBBBBBBBBBBBB",
"BBBBBBBBBBBBBBBBBBBBBBBBBBBBBBBBBBBBBBBBBBBBBBBBBBBBBBBBBBBBBBBB",
"BBBBBBBBBBBBBBBBBBBBBBBBB1:::*:**:BBBBBBBBBBBBBBBBBBBBBBBBBBBBBB",
"BBBBBBBBBBBBBBBBBBBBB11#:55600ipaNNxa7<:BBBBBBBBBBBBBBBBBBBBBBBB",
"BBBBBBBBBBBBBBBBBBB<-=590yaaaxmxNNNNNNx055<BBBBBBBBBBBBBBBBBBBBB",
"BBBBBBBBBBBBBBBBB1<uu0yakxxkkxcxaaxNNNNNx067:<BBBBBBBBBBBBBBBBBB",
"BBBBBBBBBBBBBBBB-:unmkkkkckaxxcMNxaaxNNNxixk54-BBBBBBBBBBBBBBBBB",
"BBBBBBBBBBBBBB1:ukmmczzcxxxxcvcaxvvxaNNNxiiay05:<BBBBBBBBBBBBBBB",
"BBBBBBBBBBBBB#4ukmMMMzzMMvccMcvaxcMxaaxNNaiaai097-BBBBBBBBBBBBBB",
"BBBBBBBBBBBB-=rypmMMzzxvMvvcxaxavvxxaaaaxxiaaiiy0r-BBBBBBBBBBBBB",
"BBBBBBBBBBB-=5yypmMMczzMMMvxaaaavMvavaaaiiaiiiiiy95:BBBBBBBBBBBB",
"BBBBBBBBBB#&7yypkmNNMMMMMMvxaaaavMMvNvaaaaaiiiiyay65:BBBBBBBBBBB",
"BBBBBBBBB#&4ryyynMMNMMMMvvcccxaaxNNNNNcxaaapiiiiiiy95<BBBBBBBBBB",
"BBBBBBBB<*4ryyypmmmNNMMMxcvvcccavMNNNNMMxiiiiiii4;;;#-><,,,>BBBB",
"BBBBBBBB<4eryyypnmmMNMMMxzMMvccxxvNNNMvxxaiiiii4sffffddddds>BBBB",
"BBBBBBB#*4rryyyuncmNNNMMzzvMvvccvMMMcxawxxxiiii;>>>ssssssss>BBBB",
"BBBBBB#@:errrr0knmmMNMNMzzvvpxMvvMMvcvpiawii0ii074;#>ssssss>BBBB",
"BBBBB,#*4rrrrrpmmnmmNNMMzzzxxpxxcvzzMzxxiwwii0i00y0y;sssss>BBBBB",
"BBBBB##&errreynmmmmmNNMzzzzzzkkpzxzzzppwqq0w0w0005e7;sssss>BBBBB",
"BBBBB#@:errrrpnmmmnmmNNMzzzzpxzxzxzzpqqqqqqq0000054;#sssss<BBBBB",
"BBBB-O@eerr77uznnmnnmNMzzzkkkzzzvzzpwqq9q0000000057;>dssssoBBBBB",
"BBBB>O%eer7r7pbnnnmbmNmmzkkkkkzkMkxqqqq99q0000090054>dsds,--BBBB",
"BBBB#@;eeee77ubknnmbmMMzkkkkkkzzMkpqqqqq999099000004sddds>:-BBBB",
"BBBBo#:e:ee47ekbnmnnmMmkkzkukzzMzkpqqqqqq9999999900*sdddsX:-BBBB",
"BBB>X#eee:4477uubnnmMmkkllulkkzkkppqqqwqqq999069099#dddds%7<<BBB",
"BBB>X@;444:444uunmmmmmkluuulkkkkpwwwwwwwqqq99069995>gddd>&4-<BBB",
"BBBoX@;::4:444eubnmmmmkuuuuuulkpwwwiwwwwwwq99099965,dddd>=&*<BBB",
"BBB>X@;;;:::47rrubnmmkpuuuuuiuuxwwiiiiiw5:;:;;*456:sddddo==**BBB",
"BBBoX@;;;;::7&4yrbnmmuuu669099qppwiiii41ffffffff,;@dgggs@==**BBB",
"BBBoX@#;;;::&4&e=ubmmlu686989qqppaiir<ffgds>>>sdgfdggggs#&&*#BBB",
"BBB.o@;;;:&:44577ebnmku569909qwipii-ffggso%*&*O>sdgdggd>%&&*#BBB",
"BBB.oo--;*;:==4447ubnku5696q8qwiii;fggd>%754===%>sggggdo%&**#BBB",
"BBB..X--%%*&===475pznz659988qqppu;fggd>-74&&&&==Osggggso%&&%#BBB",
"BBB..X#-#;**==4557uzzzp999qupwwi<fgggs-e&;;&&===&>ggggsX%&*%<BBB",
"BBB..o@#-%**==44555ukkku69plp8w4dhggso3::;&:7777=>gggg>X%*&@<BBB",
"BBB..XX%#%**===47555upnplluxw86>hggg>*;%*;:=5666=shggfoo%**@BBBB",
"BBB..XX#%%%*&444555666uppczxwp;hgggso;%*&:766966*dhgbf.O%**OBBBB",
"BBB#..X@@%**==47556669988pzcvpshggg,%$%*=7669999#hhjNdXO%**#BBBB",
"BBB-.XXoO$%*&=4755566688888wp2ghggdo$@%;760pw889>hjnn,X$**%<BBBB",
"BBBB..XX@#%*&=475566688888888>hhhjdoo-:tuppkpw97sjnnboX$**@BBBBB",
"BBBB..XXX#$*&==45566688888885sjbnnsX--:uuuxzzku=fnnnf.@$**@BBBBB",
"BBBB-.oXXO@$*=47756668888888=fnnnb,o-:truxMcMcu<jnnns.X%&%<BBBBB",
"BBBBBo.XXXO+%&=7756698888888-jnnnb>o-:eupcmMzkl>jbbb,X@&&@BBBBBB",
"BBBBB#.XXXO+$*=4775668888888>jnbbjoo-:rupxMckkusbbjf>@::%-BBBBBB",
"BBBBBB..XXOO+$*=775566688888>jbbbjo#:3uuukkzkp:fjjjfo@:&OBBBBBBB",
"BBBBBB#.XXXO++$&=77566888888>jjjjfo#::uuxzkkur-fjjjd.::*-BBBBBBB",
"BBBBBBB..XXOO+$%&=7755666686>jjjjjo-:7ruupuu77>jjjjso:&OBBBBBBBB",
"BBBBBBBBoXXOOO++%&&475566688#fjjjj>@=:7uu667==sjjjj,::@BBBBBBBBB",
"BBBBBBBB-.XOOOO++$&&44555566%gjjjj,@:=r7777==-fjjjh>:%-BBBBBBBBB",
"BBBBBBBBBo.XO+O+++$*&=447555=sjjjjdo:=7777==&fjhjhh>-@BBBBBBBBBB",
"BBBBBBBBBB#.OOOO++++%&&&44774>jjhhj>%======#fhhhhhh>@BBBBBBBBBBB",
"BBBBBBBBBBB#.OO@@++++$%**&&==Odhhhhf>%=&=-ffd>ghhhhf>11<>BBBBBBB",
"BBBBBBBBBBBBo.OOO@++++$$%**&&%>ghhhhjff,ffjsoXhhhhhhjjjjsBBBBBBB",
"BBBBBBBBBBBBBo.X@@@++++$$$$$$$O>ghhhhhhhhd>X%@shhhhhhhds>BBBBBBB",
"BBBBBBBBBBBBBB#.XO@+++$$$$$$$$+Xosghhhhgso@@@:X>sggss>oBBBBBBBBB",
"BBBBBBBBBBBBBBB<o.O+@+$+$$$%$$$+OX.o>>o.X@@&-@o-#>oo#<BBBBBBBBBB",
"BBBBBBBBBBBBBBBBB#.XX@@+@@%%%$$%$$XXXXoo@--@@--BBBBBBBBBBBBBBBBB",
"BBBBBBBBBBBBBBBBBBB#o.XO$@$$$%%$$$$$@-:::@o#-BBBBBBBBBBBBBBBBBBB",
"BBBBBBBBBBBBBBBBBBBBBBoo.XXOO@+$$$$O%--o#<BBBBBBBBBBBBBBBBBBBBBB",
"BBBBBBBBBBBBBBBBBBBBBBBBBXX.........o#-<BBBBBBBBBBBBBBBBBBBBBBBB",
"BBBBBBBBBBBBBBBBBBBBBBBBBBBBBBBBBBBBBBBBBBBBBBBBBBBBBBBBBBBBBBBB",
"BBBBBBBBBBBBBBBBBBBBBBBBBBBBBBBBBBBBBBBBBBBBBBBBBBBBBBBBBBBBBBBB",
"BBBBBBBBBBBBBBBBBBBBBBBBBBBBBBBBBBBBBBBBBBBBBBBBBBBBBBBBBBBBBBBB"
};
