/* XPM */
static char * dillo_16x16_xpm[] = {
"16 16 53 1",
"       c None",
".      c #AEBAE38DB6DA",
"X      c #9E79E38DCF3C",
"o      c #9E79DF7DDF7D",
"O      c #BEFBF3CEDF7D",
"+      c #B6DAEBADDF7D",
"@      c #38E39A69C71B",
"#      c #208130C230C2",
"$      c #4103659579E7",
"%      c #BEFBDB6CAEBA",
"&      c #D75CFBEECF3C",
"*      c #4924B2CADF7D",
"=      c #28A28A28BEFB",
"-      c #208141035144",
";      c #410382079E79",
":      c #D75CE38DAEBA",
">      c #B6DAF3CEC71B",
",      c #79E7D34CC71B",
"<      c #000010401040",
"1      c #08205D7571C6",
"2      c #186141036185",
"3      c #79E7A2898E38",
"4      c #8617DF7DAEBA",
"5      c #10409A69CF3C",
"6      c #000008200820",
"7      c #000000000000",
"8      c #28A275D68E38",
"9      c #BEFBD34C9E79",
"0      c #4103BEFBCF3C",
"q      c #0820BAEAD75C",
"w      c #082075D69E79",
"e      c #410318611861",
"r      c #DF7D59655965",
"t      c #0820492469A6",
"y      c #8E38C30B9E79",
"u      c #08209248B6DA",
"i      c #30C2B2CACF3C",
"p      c #4924BEFBD75C",
"a      c #2081A289D75C",
"s      c #0000208128A2",
"d      c #AEBA41034924",
"f      c #5144C71BC71B",
"g      c #000028A238E3",
"h      c #FFFF61856185",
"j      c #71C630C230C2",
"k      c #0820A289B6DA",
"l      c #EFBE59655965",
"z      c #18616DB68617",
"x      c #1040492430C2",
"c      c #000079E78E38",
"v      c #000038E36185",
"b      c #208108200820",
"n      c #B6DA49244924",
"                ",
"     .XoO+@#    ",
"   $%&+o&o*=#   ",
"  -;:&>+O,@@=<  ",
" 123::4.,55=267 ",
" 1189%440q5werr ",
" t113yuippausrd ",
" tt18%f0u2sgshj ",
" 111wkyu2rlllhe ",
" 11zzkqxlllxdle ",
"  t1zcugrj37dd7 ",
"  t1zzc7h737lj7 ",
"   v22c7hb77h77 ",
"    2#77nrnjhre ",
"        777777# ",
"                "};
